<?xml version="1.0" encoding="UTF-8" standalone="no"?>
<svg
   xmlns:dc="http://purl.org/dc/elements/1.1/"
   xmlns:cc="http://creativecommons.org/ns#"
   xmlns:rdf="http://www.w3.org/1999/02/22-rdf-syntax-ns#"
   xmlns:svg="http://www.w3.org/2000/svg"
   xmlns="http://www.w3.org/2000/svg"
   viewBox="0 0 490.00001 200"
   height="200"
   width="490"
   xml:space="preserve"
   version="1.1"
   id="svg2"><metadata
     id="metadata8"><rdf:RDF><cc:Work
         rdf:about=""><dc:format>image/svg+xml</dc:format><dc:type
           rdf:resource="http://purl.org/dc/dcmitype/StillImage" /><dc:title></dc:title></cc:Work></rdf:RDF></metadata><defs
     id="defs6"><clipPath
       id="clipPath28"
       clipPathUnits="userSpaceOnUse"><path
         id="path30"
         d="m 0,1097.753 1088.33,0 L 1088.33,0 0,0 0,1097.753 Z" /></clipPath></defs><g
     transform="matrix(1.25,0,0,-1.25,0,200)"
     id="g10"><g
       transform="translate(-348.1651,-468.87585)"
       id="g3436"><g
         id="g14"
         transform="translate(428.8247,562.8706)"><path
           d="m 0,0 -9.929,0 0,65.878 14.248,0 9.254,-47.325 8.883,47.325 13.688,0 0,-65.878 -9.93,0 0,41.397 L 17.6,0 9.614,0 0,41.292 0,0 Z"
           style="fill:#ffffff;fill-opacity:1;fill-rule:nonzero;stroke:none"
           id="path16" /></g><path
         d="m 483.776,562.871 -9.93,0 0,65.826 9.93,0 0,-65.826 z"
         style="fill:#ffffff;fill-opacity:1;fill-rule:nonzero;stroke:none"
         id="path18" /><g
         id="g20"
         transform="translate(492.6538,562.8706)"><path
           d="m 0,0 0,65.878 28.264,0 0,-9.981 -18.335,0 0,-17.968 13.397,0 0,-9.981 -13.397,0 0,-17.968 18.335,0 0,-9.98 L 0,0 Z"
           style="fill:#ffffff;fill-opacity:1;fill-rule:nonzero;stroke:none"
           id="path22" /></g><g
         id="g24"><g
           id="g26"
           clip-path="url(#clipPath28)"><g
             id="g32"
             transform="translate(549.3394,612.8306)"><path
               d="m 0,0 c 0,3.817 -1.892,5.726 -5.674,5.726 l -5.989,0 0,-21.066 5.989,0 c 1.576,0 2.916,0.559 4.019,1.681 1.103,1.12 1.655,2.468 1.655,4.044 L 0,0 Z m -5.937,15.866 c 5.534,0 9.596,-1.524 12.189,-4.572 C 8.528,8.633 9.667,4.92 9.667,0.158 l 0,-9.563 c 0,-4.658 -1.77,-8.596 -5.307,-11.819 l 7.355,-28.736 -10.738,0 -6.02,24.795 -0.894,0 -5.726,0 0,-24.795 -9.93,0 0,65.826 15.656,0 z"
               style="fill:#ffffff;fill-opacity:1;fill-rule:nonzero;stroke:none"
               id="path34" /></g><g
             id="g36"
             transform="translate(597.9854,628.6963)"><path
               d="m 0,0 0,-9.981 -18.283,-45.969 18.283,0 0,-9.876 -29,0 0,9.937 18.335,45.96 L -29,-9.981 -29,0 0,0 Z"
               style="fill:#ffffff;fill-opacity:1;fill-rule:nonzero;stroke:none"
               id="path38" /></g><g
             id="g40"
             transform="translate(618.1069,590.4502)"><path
               d="m 0,0 -13.291,38.299 10.927,0 7.355,-23.641 7.303,23.641 10.979,0 L 9.929,0 9.929,-27.58 0,-27.58 0,0 Z"
               style="fill:#ffffff;fill-opacity:1;fill-rule:nonzero;stroke:none"
               id="path42" /></g><g
             id="g44"
             transform="translate(659.2412,562.8706)"><path
               d="m 0,0 -9.929,0 0,65.878 14.248,0 9.255,-47.325 8.882,47.325 13.688,0 0,-65.878 -9.929,0 0,41.397 L 17.6,0 9.615,0 0,41.292 0,0 Z"
               style="fill:#ffffff;fill-opacity:1;fill-rule:nonzero;stroke:none"
               id="path46" /></g><g
             id="g48"
             transform="translate(716.6616,590.4502)"><path
               d="m 0,0 -13.291,38.299 10.927,0 7.355,-23.641 7.303,23.641 10.979,0 L 9.929,0 9.929,-27.58 0,-27.58 0,0 Z"
               style="fill:#ffffff;fill-opacity:1;fill-rule:nonzero;stroke:none"
               id="path50" /></g><g
             id="g52"
             transform="translate(471.4839,554.8672)"><path
               d="m 0,0 13.435,0 -13.273,-84.848 -12.189,0 -7.298,46.683 -6.811,-46.683 -12.246,0 L -52.588,0 -39.181,0 -32.477,-45.438 -26.314,0 -12.907,0 -6.209,-45.399 0,0 Z"
               style="fill:#edac09;fill-opacity:1;fill-rule:nonzero;stroke:none"
               id="path54" /></g><g
             id="g56"
             transform="translate(510.8525,505.5693)"><path
               d="m 0,0 -17.132,49.366 14.085,0 9.48,-30.472 9.413,30.472 14.154,0 L 12.799,0 l 0,-35.55 L 0,-35.55 0,0 Z"
               style="fill:#edac09;fill-opacity:1;fill-rule:nonzero;stroke:none"
               id="path58" /></g><g
             id="g60"
             transform="translate(586.8989,491.1455)"><path
               d="m 0,0 c 0.09,-5.913 -1.445,-10.97 -4.604,-15.169 -2.078,-2.844 -5.012,-4.852 -8.804,-6.026 -2.031,-0.631 -4.401,-0.948 -7.11,-0.948 -5.011,0 -9.165,1.241 -12.459,3.725 -2.754,2.03 -4.934,4.795 -6.535,8.294 -1.604,3.499 -2.54,7.506 -2.81,12.02 l 12.188,0.88 c 0.542,-4.946 1.851,-8.53 3.928,-10.754 1.535,-1.678 3.295,-2.473 5.281,-2.381 2.8,0.089 5.034,1.467 6.704,4.133 0.858,1.311 1.287,3.186 1.287,5.625 0,3.525 -1.602,7.028 -4.807,10.506 -2.529,2.395 -6.322,5.987 -11.377,10.777 -4.244,4.111 -7.246,7.794 -9.006,11.047 -1.897,3.661 -2.844,7.636 -2.844,11.929 0,7.727 2.595,13.578 7.787,17.555 3.205,2.394 7.178,3.592 11.918,3.592 4.559,0 8.465,-1.015 11.716,-3.047 2.527,-1.58 4.57,-3.793 6.127,-6.637 1.558,-2.844 2.494,-6.118 2.811,-9.818 l -12.257,-2.235 c -0.362,3.476 -1.355,6.184 -2.979,8.126 -1.175,1.4 -2.868,2.099 -5.08,2.099 -2.346,0 -4.13,-1.038 -5.348,-3.114 -0.995,-1.672 -1.491,-3.748 -1.491,-6.231 0,-3.883 1.67,-7.832 5.012,-11.85 1.263,-1.535 3.159,-3.34 5.688,-5.417 2.979,-2.484 4.943,-4.221 5.891,-5.215 3.159,-3.159 5.597,-6.276 7.314,-9.345 0.813,-1.444 1.466,-2.775 1.963,-3.994 C -0.677,5.102 -0.045,2.394 0,0"
               style="fill:#edac09;fill-opacity:1;fill-rule:nonzero;stroke:none"
               id="path62" /></g><g
             id="g64"
             transform="translate(624.5483,535.9063)"><path
               d="m 0,0 c 0,2.031 -0.71,3.759 -2.133,5.18 -1.423,1.424 -3.149,2.133 -5.18,2.133 -2.032,0 -3.771,-0.709 -5.215,-2.133 C -13.973,3.759 -14.694,2.031 -14.694,0 l 0,-46.453 c 0,-2.032 0.721,-3.758 2.166,-5.181 1.444,-1.421 3.183,-2.133 5.215,-2.133 2.031,0 3.757,0.712 5.18,2.133 C -0.71,-50.211 0,-48.485 0,-46.453 L 0,0 Z m -6.975,20.044 c 5.643,0 10.439,-1.986 14.39,-5.959 3.95,-3.973 5.925,-8.758 5.925,-14.356 l 0,-46.318 c 0,-5.642 -1.986,-10.44 -5.959,-14.39 -3.973,-3.951 -8.758,-5.924 -14.356,-5.924 -5.644,0 -10.428,1.986 -14.356,5.958 -3.927,3.972 -5.891,8.758 -5.891,14.356 l 0,46.318 c 0,5.644 1.986,10.439 5.959,14.39 3.972,3.95 8.735,5.925 14.288,5.925"
               style="fill:#edac09;fill-opacity:1;fill-rule:nonzero;stroke:none"
               id="path66" /></g><g
             id="g68"
             transform="translate(661.9263,496.9355)"><path
               d="m 0,0 0,-26.916 -12.799,0 0,84.916 L 0,58 0,27.73 15.642,58 29.288,58 11.769,23.363 l 20.543,-50.279 -15.044,0 L 3.83,7.559 0,0 Z"
               style="fill:#edac09;fill-opacity:1;fill-rule:nonzero;stroke:none"
               id="path70" /></g><g
             id="g72"
             transform="translate(726.5962,535.9063)"><path
               d="m 0,0 c 0,2.031 -0.711,3.759 -2.134,5.18 -1.421,1.424 -3.148,2.133 -5.179,2.133 -2.032,0 -3.771,-0.709 -5.215,-2.133 C -13.973,3.759 -14.695,2.031 -14.695,0 l 0,-46.453 c 0,-2.032 0.722,-3.758 2.167,-5.181 1.444,-1.421 3.183,-2.133 5.215,-2.133 2.031,0 3.758,0.712 5.179,2.133 1.423,1.423 2.134,3.149 2.134,5.181 L 0,0 Z m -6.976,20.044 c 5.644,0 10.439,-1.986 14.391,-5.959 3.949,-3.973 5.925,-8.758 5.925,-14.356 l 0,-46.318 c 0,-5.642 -1.987,-10.44 -5.96,-14.39 -3.973,-3.951 -8.758,-5.924 -14.356,-5.924 -5.643,0 -10.427,1.986 -14.356,5.958 -3.927,3.972 -5.891,8.758 -5.891,14.356 l 0,46.318 c 0,5.644 1.986,10.439 5.96,14.39 3.972,3.95 8.735,5.925 14.287,5.925"
               style="fill:#edac09;fill-opacity:1;fill-rule:nonzero;stroke:none"
               id="path74" /></g><path
             d="m 353.018,474.325 52.707,0 0,149.8 -52.707,0 0,-149.8 z m 57.331,-4.623 -61.955,0 0,159.047 61.955,0 0,-159.047 z"
             style="fill:#ffffff;fill-opacity:1;fill-rule:nonzero;stroke:none"
             id="path76" /><path
             d="m 374.43,552.521 -5.958,0 0,6.588 5.958,0 0,-6.588 z"
             style="fill:#ffffff;fill-opacity:1;fill-rule:nonzero;stroke:none"
             id="path78" /><path
             d="m 374.43,565.391 -5.958,0 0,6.588 5.958,0 0,-6.588 z"
             style="fill:#ffffff;fill-opacity:1;fill-rule:nonzero;stroke:none"
             id="path80" /><g
             id="g82"
             transform="translate(383.9292,552.5205)"><path
               d="m 0,0 0,18.129 -3.025,0 0,2.479 c 0.852,0.101 1.663,0.423 2.433,0.968 0.77,0.545 1.324,1.205 1.662,1.983 l 2.48,0 L 3.55,0 0,0 Z"
               style="fill:#ffffff;fill-opacity:1;fill-rule:nonzero;stroke:none"
               id="path84" /></g><g
             id="g86"
             transform="translate(392.7534,552.5205)"><path
               d="m 0,0 0,18.129 -3.024,0 0,2.479 c 0.852,0.101 1.663,0.423 2.433,0.968 0.77,0.545 1.324,1.205 1.663,1.983 l 2.479,0 L 3.551,0 0,0 Z"
               style="fill:#ffffff;fill-opacity:1;fill-rule:nonzero;stroke:none"
               id="path88" /></g><g
             id="g90"
             transform="translate(384.9951,546.875)"><path
               d="m 0,0 0,0.002 -22.554,0 0,-0.959 21.873,0 0,-4.573 7.644,0 0,-7.233 -5.855,0 0,-5.317 5.855,0 0,-7.38 -7.644,0 0,-5.531 11.991,0 L 11.31,0 0,0 Z"
               style="fill:#ffffff;fill-opacity:1;fill-rule:nonzero;stroke:none"
               id="path92" /></g><path
             d="m 384.314,489.371 5.959,0 0,6.587 -5.959,0 0,-6.587 z"
             style="fill:#ffffff;fill-opacity:1;fill-rule:nonzero;stroke:none"
             id="path94" /><path
             d="m 384.314,503.005 5.959,0 0,6.588 -5.959,0 0,-6.588 z"
             style="fill:#ffffff;fill-opacity:1;fill-rule:nonzero;stroke:none"
             id="path96" /><g
             id="g98"
             transform="translate(365.4722,489.3706)"><path
               d="m 0,0 0,18.127 -3.025,0 0,2.481 c 0.852,0.1 1.663,0.423 2.433,0.967 0.77,0.545 1.324,1.206 1.663,1.982 l 2.479,0 L 3.55,0 0,0 Z"
               style="fill:#ffffff;fill-opacity:1;fill-rule:nonzero;stroke:none"
               id="path100" /></g><g
             id="g102"
             transform="translate(378.3667,507.4922)"><path
               d="M 0,0 C 0,0.551 -0.196,1.022 -0.587,1.414 -0.979,1.806 -1.45,2.002 -2.001,2.002 -2.552,2.002 -3.021,1.806 -3.405,1.414 -3.791,1.022 -3.984,0.551 -3.984,0 l 0,-12.577 c 0,-0.551 0.193,-1.023 0.579,-1.414 0.384,-0.392 0.853,-0.588 1.404,-0.588 0.551,0 1.022,0.196 1.414,0.588 C -0.196,-13.6 0,-13.128 0,-12.577 L 0,0 Z m 3.599,-12.633 c 0,-1.53 -0.538,-2.827 -1.616,-3.892 -1.077,-1.065 -2.368,-1.597 -3.874,-1.597 -1.53,0 -2.831,0.535 -3.902,1.606 -1.071,1.071 -1.606,2.366 -1.606,3.883 l 0,12.56 c 0,1.53 0.538,2.831 1.616,3.901 1.076,1.071 2.374,1.607 3.892,1.607 1.53,0 2.828,-0.539 3.893,-1.616 1.064,-1.077 1.597,-2.375 1.597,-3.892 l 0,-12.56 z"
               style="fill:#ffffff;fill-opacity:1;fill-rule:nonzero;stroke:none"
               id="path104" /></g><g
             id="g106"
             transform="translate(396.3027,609.082)"><path
               d="m 0,0 -22.555,0 0,-0.002 -11.309,0 0,-30.991 11.99,0 0,5.53 -7.644,0 0,7.381 5.854,0 0,5.317 -5.854,0 0,7.232 7.644,0 0,4.574 L 0,-0.959 0,0 Z"
               style="fill:#ffffff;fill-opacity:1;fill-rule:nonzero;stroke:none"
               id="path108" /></g></g></g></g></g></svg>